<?xml version="1.0" encoding="UTF-8"?><svg xmlns="http://www.w3.org/2000/svg" xmlns:xlink="http://www.w3.org/1999/xlink" fill-opacity="1" color-rendering="auto" color-interpolation="auto" text-rendering="auto" stroke="black" stroke-linecap="square" width="556" stroke-miterlimit="10" shape-rendering="auto" stroke-opacity="1" fill="black" stroke-dasharray="none" font-weight="normal" stroke-width="1" height="338" font-family="'Dialog'" font-style="normal" stroke-linejoin="miter" font-size="12px" stroke-dashoffset="0" image-rendering="auto">
  <!--Generated by ySVG 2.5-->
  <defs id="genericDefs"/>
  <g>
    <defs id="defs1">
      <clipPath clipPathUnits="userSpaceOnUse" id="clipPath1">
        <path d="M0 0 L556 0 L556 338 L0 338 L0 0 Z"/>
      </clipPath>
      <clipPath clipPathUnits="userSpaceOnUse" id="clipPath2">
        <path d="M1115 440 L1671 440 L1671 778 L1115 778 L1115 440 Z"/>
      </clipPath>
    </defs>
    <g fill="white" text-rendering="geometricPrecision" shape-rendering="geometricPrecision" transform="translate(-1115,-440)" stroke="white">
      <rect x="1115" width="556" height="338" y="440" clip-path="url(#clipPath2)" stroke="none"/>
    </g>
    <g fill="rgb(204,255,204)" text-rendering="geometricPrecision" shape-rendering="geometricPrecision" transform="matrix(1,0,0,1,-1115,-440)" stroke="rgb(204,255,204)">
      <rect x="1278" width="106" height="27" y="456" clip-path="url(#clipPath2)" stroke="none"/>
    </g>
    <g text-rendering="geometricPrecision" stroke-miterlimit="1.45" shape-rendering="geometricPrecision" transform="matrix(1,0,0,1,-1115,-440)" stroke-linecap="butt">
      <rect fill="none" x="1278" width="106" height="27" y="456" clip-path="url(#clipPath2)"/>
      <text x="1307.9521" xml:space="preserve" y="474.0352" clip-path="url(#clipPath2)" font-family="sans-serif" stroke="none">Adapter</text>
    </g>
    <g fill="rgb(204,255,204)" text-rendering="geometricPrecision" shape-rendering="geometricPrecision" transform="matrix(1,0,0,1,-1115,-440)" stroke="rgb(204,255,204)">
      <rect x="1278" width="106" height="27" y="502" clip-path="url(#clipPath2)" stroke="none"/>
    </g>
    <g text-rendering="geometricPrecision" stroke-miterlimit="1.45" shape-rendering="geometricPrecision" transform="matrix(1,0,0,1,-1115,-440)" stroke-linecap="butt">
      <rect fill="none" x="1278" width="106" height="27" y="502" clip-path="url(#clipPath2)"/>
      <text x="1307.9521" xml:space="preserve" y="520.0352" clip-path="url(#clipPath2)" font-family="sans-serif" stroke="none">Adapter</text>
    </g>
    <g fill="rgb(204,255,204)" text-rendering="geometricPrecision" shape-rendering="geometricPrecision" transform="matrix(1,0,0,1,-1115,-440)" stroke="rgb(204,255,204)">
      <rect x="1278" width="106" height="27" y="548" clip-path="url(#clipPath2)" stroke="none"/>
    </g>
    <g text-rendering="geometricPrecision" stroke-miterlimit="1.45" shape-rendering="geometricPrecision" transform="matrix(1,0,0,1,-1115,-440)" stroke-linecap="butt">
      <rect fill="none" x="1278" width="106" height="27" y="548" clip-path="url(#clipPath2)"/>
      <text x="1307.9521" xml:space="preserve" y="566.0352" clip-path="url(#clipPath2)" font-family="sans-serif" stroke="none">Adapter</text>
    </g>
    <g fill="rgb(204,255,255)" text-rendering="geometricPrecision" shape-rendering="geometricPrecision" transform="matrix(1,0,0,1,-1115,-440)" stroke="rgb(204,255,255)">
      <rect x="1414" width="106" height="27" y="456" clip-path="url(#clipPath2)" stroke="none"/>
    </g>
    <g text-rendering="geometricPrecision" stroke-miterlimit="1.45" shape-rendering="geometricPrecision" transform="matrix(1,0,0,1,-1115,-440)" stroke-linecap="butt">
      <rect fill="none" x="1414" width="106" height="27" y="456" clip-path="url(#clipPath2)"/>
      <text x="1444.9893" xml:space="preserve" y="474.0352" clip-path="url(#clipPath2)" font-family="sans-serif" stroke="none">Dataset</text>
    </g>
    <g fill="rgb(204,255,255)" text-rendering="geometricPrecision" shape-rendering="geometricPrecision" transform="matrix(1,0,0,1,-1115,-440)" stroke="rgb(204,255,255)">
      <rect x="1414" width="106" height="27" y="502" clip-path="url(#clipPath2)" stroke="none"/>
    </g>
    <g text-rendering="geometricPrecision" stroke-miterlimit="1.45" shape-rendering="geometricPrecision" transform="matrix(1,0,0,1,-1115,-440)" stroke-linecap="butt">
      <rect fill="none" x="1414" width="106" height="27" y="502" clip-path="url(#clipPath2)"/>
      <text x="1444.9893" xml:space="preserve" y="520.0352" clip-path="url(#clipPath2)" font-family="sans-serif" stroke="none">Dataset</text>
    </g>
    <g fill="rgb(204,255,255)" text-rendering="geometricPrecision" shape-rendering="geometricPrecision" transform="matrix(1,0,0,1,-1115,-440)" stroke="rgb(204,255,255)">
      <rect x="1414" width="106" height="27" y="548" clip-path="url(#clipPath2)" stroke="none"/>
    </g>
    <g text-rendering="geometricPrecision" stroke-miterlimit="1.45" shape-rendering="geometricPrecision" transform="matrix(1,0,0,1,-1115,-440)" stroke-linecap="butt">
      <rect fill="none" x="1414" width="106" height="27" y="548" clip-path="url(#clipPath2)"/>
      <text x="1444.9893" xml:space="preserve" y="566.0352" clip-path="url(#clipPath2)" font-family="sans-serif" stroke="none">Dataset</text>
    </g>
    <g fill="rgb(153,204,255)" text-rendering="geometricPrecision" shape-rendering="geometricPrecision" transform="matrix(1,0,0,1,-1115,-440)" stroke="rgb(153,204,255)">
      <rect x="1550" width="106" height="27" y="502" clip-path="url(#clipPath2)" stroke="none"/>
    </g>
    <g text-rendering="geometricPrecision" stroke-miterlimit="1.45" shape-rendering="geometricPrecision" transform="matrix(1,0,0,1,-1115,-440)" stroke-linecap="butt">
      <rect fill="none" x="1550" width="106" height="27" y="502" clip-path="url(#clipPath2)"/>
      <text x="1568.2041" xml:space="preserve" y="520.0352" clip-path="url(#clipPath2)" font-family="sans-serif" stroke="none">DataModule</text>
    </g>
    <g fill="rgb(255,153,204)" text-rendering="geometricPrecision" shape-rendering="geometricPrecision" transform="matrix(1,0,0,1,-1115,-440)" stroke="rgb(255,153,204)">
      <rect x="1550" width="106" height="27" y="690" clip-path="url(#clipPath2)" stroke="none"/>
    </g>
    <g text-rendering="geometricPrecision" stroke-miterlimit="1.45" shape-rendering="geometricPrecision" transform="matrix(1,0,0,1,-1115,-440)" stroke-linecap="butt">
      <rect fill="none" x="1550" width="106" height="27" y="690" clip-path="url(#clipPath2)"/>
      <text x="1582.1816" xml:space="preserve" y="708.0352" clip-path="url(#clipPath2)" font-family="sans-serif" stroke="none">Trainer</text>
    </g>
    <g fill="silver" text-rendering="geometricPrecision" shape-rendering="geometricPrecision" transform="matrix(1,0,0,1,-1115,-440)" stroke="silver">
      <rect x="1375" width="106" height="27" y="690" clip-path="url(#clipPath2)" stroke="none"/>
    </g>
    <g text-rendering="geometricPrecision" stroke-miterlimit="1.45" shape-rendering="geometricPrecision" transform="matrix(1,0,0,1,-1115,-440)" stroke-linecap="butt">
      <rect fill="none" x="1375" width="106" height="27" y="690" clip-path="url(#clipPath2)"/>
      <text x="1410.293" xml:space="preserve" y="708.0352" clip-path="url(#clipPath2)" font-family="sans-serif" stroke="none">Model</text>
    </g>
    <g fill="lime" text-rendering="geometricPrecision" shape-rendering="geometricPrecision" transform="matrix(1,0,0,1,-1115,-440)" stroke="lime">
      <rect x="1200" width="106" height="27" y="690" clip-path="url(#clipPath2)" stroke="none"/>
    </g>
    <g text-rendering="geometricPrecision" stroke-miterlimit="1.45" shape-rendering="geometricPrecision" transform="matrix(1,0,0,1,-1115,-440)" stroke-linecap="butt">
      <rect fill="none" x="1200" width="106" height="27" y="690" clip-path="url(#clipPath2)"/>
      <text x="1231.9238" xml:space="preserve" y="708.0352" clip-path="url(#clipPath2)" font-family="sans-serif" stroke="none">Metrics</text>
    </g>
    <g fill="rgb(255,153,0)" text-rendering="geometricPrecision" shape-rendering="geometricPrecision" transform="matrix(1,0,0,1,-1115,-440)" stroke="rgb(255,153,0)">
      <rect x="1200" width="106" height="27" y="736" clip-path="url(#clipPath2)" stroke="none"/>
    </g>
    <g text-rendering="geometricPrecision" stroke-miterlimit="1.45" shape-rendering="geometricPrecision" transform="matrix(1,0,0,1,-1115,-440)" stroke-linecap="butt">
      <rect fill="none" x="1200" width="106" height="27" y="736" clip-path="url(#clipPath2)"/>
      <text x="1225.3379" xml:space="preserve" y="754.0352" clip-path="url(#clipPath2)" font-family="sans-serif" stroke="none">Callbacks</text>
    </g>
    <g fill="yellow" text-rendering="geometricPrecision" shape-rendering="geometricPrecision" transform="matrix(1,0,0,1,-1115,-440)" stroke="yellow">
      <rect x="1200" width="106" height="27" y="644" clip-path="url(#clipPath2)" stroke="none"/>
    </g>
    <g text-rendering="geometricPrecision" stroke-miterlimit="1.45" shape-rendering="geometricPrecision" transform="matrix(1,0,0,1,-1115,-440)" stroke-linecap="butt">
      <rect fill="none" x="1200" width="106" height="27" y="644" clip-path="url(#clipPath2)"/>
      <text x="1233.5967" xml:space="preserve" y="662.0352" clip-path="url(#clipPath2)" font-family="sans-serif" stroke="none">Losses</text>
    </g>
    <g fill="rgb(255,204,0)" text-rendering="geometricPrecision" shape-rendering="geometricPrecision" transform="matrix(1,0,0,1,-1115,-440)" stroke="rgb(255,204,0)">
      <path d="M1130 455.5 L1233 455.5 L1233 470.5 L1248 470.5 L1248 483.5 L1130 483.5 Z" stroke="none" clip-path="url(#clipPath2)"/>
      <path fill="white" d="M1233 455.5 L1233 470.5 L1248 470.5 Z" clip-path="url(#clipPath2)" fill-rule="evenodd" stroke="none"/>
    </g>
    <g text-rendering="geometricPrecision" stroke-miterlimit="1.45" shape-rendering="geometricPrecision" transform="matrix(1,0,0,1,-1115,-440)" stroke-linecap="butt">
      <path fill="none" d="M1130 455.5 L1233 455.5 L1233 470.5 L1248 470.5 L1248 483.5 L1130 483.5 Z" clip-path="url(#clipPath2)"/>
      <path fill="none" d="M1233 455.5 L1233 470.5 L1248 470.5 Z" clip-path="url(#clipPath2)" fill-rule="evenodd"/>
      <text x="1152.5195" xml:space="preserve" y="474.0352" clip-path="url(#clipPath2)" font-family="sans-serif" stroke="none">Train set file</text>
    </g>
    <g fill="rgb(255,204,0)" text-rendering="geometricPrecision" shape-rendering="geometricPrecision" transform="matrix(1,0,0,1,-1115,-440)" stroke="rgb(255,204,0)">
      <path d="M1130 501.5 L1233 501.5 L1233 516.5 L1248 516.5 L1248 529.5 L1130 529.5 Z" stroke="none" clip-path="url(#clipPath2)"/>
      <path fill="white" d="M1233 501.5 L1233 516.5 L1248 516.5 Z" clip-path="url(#clipPath2)" fill-rule="evenodd" stroke="none"/>
    </g>
    <g text-rendering="geometricPrecision" stroke-miterlimit="1.45" shape-rendering="geometricPrecision" transform="matrix(1,0,0,1,-1115,-440)" stroke-linecap="butt">
      <path fill="none" d="M1130 501.5 L1233 501.5 L1233 516.5 L1248 516.5 L1248 529.5 L1130 529.5 Z" clip-path="url(#clipPath2)"/>
      <path fill="none" d="M1233 501.5 L1233 516.5 L1248 516.5 Z" clip-path="url(#clipPath2)" fill-rule="evenodd"/>
      <text x="1138.3574" xml:space="preserve" y="520.0352" clip-path="url(#clipPath2)" font-family="sans-serif" stroke="none">Validation set file</text>
    </g>
    <g fill="rgb(255,204,0)" text-rendering="geometricPrecision" shape-rendering="geometricPrecision" transform="matrix(1,0,0,1,-1115,-440)" stroke="rgb(255,204,0)">
      <path d="M1130 547.5 L1233 547.5 L1233 562.5 L1248 562.5 L1248 575.5 L1130 575.5 Z" stroke="none" clip-path="url(#clipPath2)"/>
      <path fill="white" d="M1233 547.5 L1233 562.5 L1248 562.5 Z" clip-path="url(#clipPath2)" fill-rule="evenodd" stroke="none"/>
    </g>
    <g text-rendering="geometricPrecision" stroke-miterlimit="1.45" shape-rendering="geometricPrecision" transform="matrix(1,0,0,1,-1115,-440)" stroke-linecap="butt">
      <path fill="none" d="M1130 547.5 L1233 547.5 L1233 562.5 L1248 562.5 L1248 575.5 L1130 575.5 Z" clip-path="url(#clipPath2)"/>
      <path fill="none" d="M1233 547.5 L1233 562.5 L1248 562.5 Z" clip-path="url(#clipPath2)" fill-rule="evenodd"/>
      <text x="1155.1006" xml:space="preserve" y="566.0352" clip-path="url(#clipPath2)" font-family="sans-serif" stroke="none">Test set file</text>
      <path fill="none" d="M1384 469.5 L1406 469.5" clip-path="url(#clipPath2)"/>
      <path d="M1414 469.5 L1402 464.5 L1405 469.5 L1402 474.5 Z" clip-path="url(#clipPath2)" stroke="none"/>
      <path fill="none" d="M1384 515.5 L1406 515.5" clip-path="url(#clipPath2)"/>
      <path d="M1414 515.5 L1402 510.5 L1405 515.5 L1402 520.5 Z" clip-path="url(#clipPath2)" stroke="none"/>
      <path fill="none" d="M1384 561.5 L1406 561.5" clip-path="url(#clipPath2)"/>
      <path d="M1414 561.5 L1402 556.5 L1405 561.5 L1402 566.5 Z" clip-path="url(#clipPath2)" stroke="none"/>
      <path fill="none" d="M1506.9131 548 L1555.5087 531.5632" clip-path="url(#clipPath2)"/>
      <path d="M1563.0869 529 L1550.1176 528.1085 L1554.5614 531.8837 L1553.3215 537.5812 Z" clip-path="url(#clipPath2)" stroke="none"/>
      <path fill="none" d="M1520 515.5 L1542 515.5" clip-path="url(#clipPath2)"/>
      <path d="M1550 515.5 L1538 510.5 L1541 515.5 L1538 520.5 Z" clip-path="url(#clipPath2)" stroke="none"/>
      <path fill="none" d="M1506.9131 483 L1555.5087 499.4368" clip-path="url(#clipPath2)"/>
      <path d="M1563.0869 502 L1553.3215 493.4187 L1554.5614 499.1164 L1550.1176 502.8916 Z" clip-path="url(#clipPath2)" stroke="none"/>
      <path fill="none" d="M1603 529 L1603 682" clip-path="url(#clipPath2)"/>
      <path d="M1603 690 L1608 678 L1603 681 L1598 678 Z" clip-path="url(#clipPath2)" stroke="none"/>
      <path fill="none" d="M1550 703.5 L1489 703.5" clip-path="url(#clipPath2)"/>
      <path d="M1481 703.5 L1493 708.5 L1490 703.5 L1493 698.5 Z" clip-path="url(#clipPath2)" stroke="none"/>
      <path fill="none" d="M1375 703.5 L1314 703.5" clip-path="url(#clipPath2)"/>
      <path d="M1306 703.5 L1318 708.5 L1315 703.5 L1318 698.5 Z" clip-path="url(#clipPath2)" stroke="none"/>
      <path fill="none" d="M1376.6414 717 L1312.0958 733.9662" clip-path="url(#clipPath2)"/>
      <path d="M1304.3586 736 L1317.2355 737.7851 L1313.063 733.712 L1314.6934 728.1136 Z" clip-path="url(#clipPath2)" stroke="none"/>
      <path fill="none" d="M1368.9042 687.9662 L1312.0958 673.0338" clip-path="url(#clipPath2)"/>
      <path d="M1376.6414 690 L1366.3066 682.1136 L1367.937 687.712 L1363.7645 691.7851 Z" clip-path="url(#clipPath2)" stroke="none"/>
      <path d="M1304.3586 671 L1314.6934 678.8864 L1313.063 673.288 L1317.2355 669.2149 Z" clip-path="url(#clipPath2)" stroke="none"/>
      <path fill="none" d="M1247.9702 469.5 L1270 469.5" clip-path="url(#clipPath2)"/>
      <path d="M1278 469.5 L1266 464.5 L1269 469.5 L1266 474.5 Z" clip-path="url(#clipPath2)" stroke="none"/>
      <path fill="none" d="M1247.9702 515.5 L1270 515.5" clip-path="url(#clipPath2)"/>
      <path d="M1278 515.5 L1266 510.5 L1269 515.5 L1266 520.5 Z" clip-path="url(#clipPath2)" stroke="none"/>
      <path fill="none" d="M1247.9702 561.5 L1270 561.5" clip-path="url(#clipPath2)"/>
      <path d="M1278 561.5 L1266 556.5 L1269 561.5 L1266 566.5 Z" clip-path="url(#clipPath2)" stroke="none"/>
    </g>
  </g>
</svg>
